<?xml version="1.0" encoding="UTF-8"?>
<svg xmlns="http://www.w3.org/2000/svg" xmlns:xlink="http://www.w3.org/1999/xlink" viewBox="0 0 500 500" width="500px" height="500px">
<g id="surface165836372">
<path style=" stroke:none;fill-rule:nonzero;fill:rgb(90.588236%,29.803923%,23.529412%);fill-opacity:1;" d="M 250 10 C 196.730469 10 156.042969 59.53125 151.660156 120 L 50.585938 120 C 39.234375 120 29.992188 129.808594 30.625 141.132812 L 47.871094 442.851562 C 49.367188 469.222656 71.367188 490 97.773438 490 L 402.226562 490 C 428.636719 490 450.632812 469.21875 452.128906 442.851562 L 469.375 141.152344 C 470.027344 129.820312 460.765625 120 449.414062 120 L 348.339844 120 C 343.957031 59.53125 303.269531 10 250 10 Z M 250 30 C 290.371094 30 324.089844 68.867188 328.359375 120 L 171.640625 120 C 175.910156 68.867188 209.628906 30 250 30 Z M 250.800781 180 C 289.199219 180 317.992188 200.609375 320.390625 202.109375 L 310.097656 218.808594 C 307.597656 217.109375 303.105469 214.398438 301.40625 213.398438 C 291.207031 207.898438 272.402344 199.707031 250.800781 199.707031 C 218.300781 199.707031 194.804688 217.699219 194.804688 242.5 C 194.804688 267.199219 216.601562 276.996094 252.402344 290.097656 C 288.703125 303.296875 329.707031 318.296875 329.707031 365.996094 C 329.707031 401.894531 294.300781 430.097656 249.101562 430.097656 C 209.203125 430.097656 176.402344 405.601562 168.300781 399.101562 L 179.394531 382.597656 C 179.695312 382.898438 211.601562 410.292969 249.101562 410.292969 C 282.703125 410.292969 310 390.394531 310 365.996094 C 310 334.394531 285.707031 323.195312 245.605469 308.59375 C 212.605469 296.492188 175.097656 282.800781 175.097656 242.5 C 175.097656 206.898438 207.601562 180 250.800781 180 Z M 250.800781 180 "/>
</g>
</svg>
